<svg width="1024" height="1024" viewBox="0 0 1024 1024" fill="none" xmlns="http://www.w3.org/2000/svg"><g filter="url(#a)"><path fill-rule="evenodd" clip-rule="evenodd" d="M924 356.627c0-9.782.004-19.565-.056-29.348-.049-8.241-.144-16.48-.368-24.717-.484-17.953-1.543-36.06-4.736-53.813-3.238-18.008-8.526-34.769-16.859-51.132a172.08 172.08 0 0 0-75.235-75.199c-16.38-8.335-33.159-13.621-51.188-16.858-17.755-3.188-35.867-4.245-53.82-4.73-8.243-.223-16.485-.317-24.73-.368-9.788-.06-19.576-.055-29.364-.055L553.997 100h-85l-111.636.407c-9.807 0-19.614-.005-29.421.055-8.262.051-16.52.145-24.779.368-17.994.485-36.147 1.543-53.944 4.735-18.053 3.236-34.857 8.52-51.259 16.849a172.4 172.4 0 0 0-43.667 31.644 172 172 0 0 0-31.718 43.552c-8.356 16.371-13.654 33.142-16.9 51.16-3.196 17.746-4.255 35.847-4.742 53.792-.222 8.238-.318 16.477-.368 24.717-.06 9.784-.563 21.937-.563 31.72l.003 110.09-.003 85.909.508 112.429c0 9.796-.004 19.592.055 29.388.05 8.252.146 16.502.369 24.751.486 17.976 1.547 36.109 4.746 53.886 3.245 18.032 8.542 34.817 16.891 51.201a172.2 172.2 0 0 0 31.722 43.619 172.4 172.4 0 0 0 43.659 31.684c16.412 8.346 33.224 13.639 51.288 16.88 17.789 3.193 35.936 4.252 53.923 4.737 8.259.223 16.518.318 24.78.368 9.807.06 19.613.056 29.42.056l112.645.003h85.211l112.427-.004c9.788 0 19.576.005 29.364-.055 8.245-.05 16.487-.145 24.73-.368 17.96-.486 36.078-1.546 53.841-4.741 18.018-3.241 34.789-8.532 51.16-16.873a172.2 172.2 0 0 0 75.239-75.299c8.338-16.392 13.626-33.185 16.866-51.229 3.19-17.77 4.248-35.896 4.733-53.865.223-8.25.318-16.5.367-24.751.061-9.796.056-19.592.056-29.388l-.006-112.429v-85.999z" fill="url(#b)"/></g><g filter="url(#c)"><mask id="d" style="mask-type:luminance" maskUnits="userSpaceOnUse" x="100" y="100" width="824" height="824"><path fill-rule="evenodd" clip-rule="evenodd" d="M924 356.627c0-9.782.004-19.565-.056-29.348-.049-8.241-.144-16.48-.368-24.717-.484-17.953-1.543-36.06-4.736-53.813-3.238-18.008-8.526-34.769-16.859-51.132a172.08 172.08 0 0 0-75.235-75.199c-16.38-8.335-33.159-13.621-51.188-16.858-17.755-3.188-35.867-4.245-53.82-4.73-8.243-.223-16.485-.317-24.73-.368-9.788-.06-19.576-.055-29.364-.055L553.997 100h-85l-111.636.407c-9.807 0-19.614-.005-29.421.055-8.262.051-16.52.145-24.779.368-17.994.485-36.147 1.543-53.944 4.735-18.053 3.236-34.857 8.52-51.259 16.849a172.4 172.4 0 0 0-43.667 31.644 172 172 0 0 0-31.718 43.552c-8.356 16.371-13.654 33.142-16.9 51.16-3.196 17.746-4.255 35.847-4.742 53.792-.222 8.238-.318 16.477-.368 24.717-.06 9.784-.563 21.937-.563 31.72l.003 110.09-.003 85.909.508 112.429c0 9.796-.004 19.592.055 29.388.05 8.252.146 16.502.369 24.751.486 17.976 1.547 36.109 4.746 53.886 3.245 18.032 8.542 34.817 16.891 51.201a172.2 172.2 0 0 0 31.722 43.619 172.4 172.4 0 0 0 43.659 31.684c16.412 8.346 33.224 13.639 51.288 16.88 17.789 3.193 35.936 4.252 53.923 4.737 8.259.223 16.518.318 24.78.368 9.807.06 19.613.056 29.42.056l112.645.003h85.211l112.427-.004c9.788 0 19.576.005 29.364-.055 8.245-.05 16.487-.145 24.73-.368 17.96-.486 36.078-1.546 53.841-4.741 18.018-3.241 34.789-8.532 51.16-16.873a172.2 172.2 0 0 0 75.239-75.299c8.338-16.392 13.626-33.185 16.866-51.229 3.19-17.77 4.248-35.896 4.733-53.865.223-8.25.318-16.5.367-24.751.061-9.796.056-19.592.056-29.388l-.006-112.429v-85.999z" fill="#fff"/></mask><g mask="url(#d)"><path fill="url(#e)" d="M55 55h914v914H55z"/></g></g><g filter="url(#f)"><path fill-rule="evenodd" clip-rule="evenodd" d="M624.923 781.709a33.68 33.68 0 0 0 26.789-1.027l111.177-53.375C774.571 721.698 782 709.9 782 696.959V335.042c0-12.942-7.429-24.738-19.111-30.347l-111.177-53.377a33.69 33.69 0 0 0-34.338 3.088 33.6 33.6 0 0 0-4.021 3.43L400.517 451.569l-92.706-70.212c-8.63-6.536-20.701-6.001-28.717 1.274l-29.734 26.986c-9.804 8.898-9.815 24.287-.024 33.2l80.398 73.182-80.398 73.183c-9.791 8.913-9.78 24.302.024 33.2l29.734 26.986c8.016 7.275 20.087 7.81 28.717 1.275l92.706-70.214 212.836 193.735a33.6 33.6 0 0 0 11.57 7.545M646 394 486 516l160 122z" fill="#000" fill-opacity=".01"/></g><mask id="g" style="mask-type:luminance" maskUnits="userSpaceOnUse" x="242" y="248" width="540" height="536"><path fill-rule="evenodd" clip-rule="evenodd" d="M624.923 781.709a33.68 33.68 0 0 0 26.789-1.027l111.177-53.375C774.571 721.698 782 709.9 782 696.959V335.042c0-12.942-7.429-24.738-19.111-30.347l-111.177-53.377a33.69 33.69 0 0 0-34.338 3.088 33.6 33.6 0 0 0-4.021 3.43L400.517 451.569l-92.706-70.212c-8.63-6.536-20.701-6.001-28.717 1.274l-29.734 26.986c-9.804 8.898-9.815 24.287-.024 33.2l80.398 73.182-80.398 73.183c-9.791 8.913-9.78 24.302.024 33.2l29.734 26.986c8.016 7.275 20.087 7.81 28.717 1.275l92.706-70.214 212.836 193.735a33.6 33.6 0 0 0 11.57 7.545M646 394 486 516l160 122z" fill="#fff"/></mask><g mask="url(#g)"><g filter="url(#h)"><path d="m762.832 302.884-111.608-53.555c-12.917-6.198-28.357-3.583-38.496 6.52L247.363 587.846c-9.827 8.93-9.816 24.35.025 33.265l29.844 27.039c8.045 7.289 20.161 7.826 28.823 1.277l439.983-332.648c14.761-11.16 35.962-.669 35.962 17.797v-1.292c0-12.961-7.45-24.776-19.168-30.4" fill="#00EDD1"/></g><g filter="url(#i)"><path d="m762.832 727.116-111.608 53.555c-12.917 6.198-28.357 3.583-38.496-6.52L247.363 442.154c-9.827-8.93-9.816-24.35.025-33.265l29.844-27.039c8.045-7.289 20.161-7.826 28.823-1.277l439.983 332.648c14.761 11.16 35.962.669 35.962-17.797v1.292c0 12.961-7.45 24.776-19.168 30.4" fill="#26AEF9"/></g><path fill="url(#j)" d="M244 216h404v580H244z"/><g filter="url(#k)"><path d="M650.667 780.681c-12.978 6.182-28.484 3.57-38.667-6.515 12.546 12.425 34 3.624 34-13.95V271.784c0-17.574-21.454-26.375-34-13.948 10.183-10.086 25.689-12.699 38.667-6.518l112.068 53.377C774.512 310.304 782 322.1 782 335.042V696.96c0 12.942-7.488 24.738-19.265 30.347z" fill="#00EDD1"/></g><mask id="l" style="mask-type:luminance" maskUnits="userSpaceOnUse" x="612" y="248" width="170" height="536"><path d="M650.667 780.681c-12.978 6.182-28.484 3.57-38.667-6.515 12.546 12.425 34 3.624 34-13.95V271.784c0-17.574-21.454-26.375-34-13.948 10.183-10.086 25.689-12.699 38.667-6.518l112.068 53.377C774.512 310.304 782 322.1 782 335.042V696.96c0 12.942-7.488 24.738-19.265 30.347z" fill="#fff"/></mask><g mask="url(#l)"><path fill="url(#m)" d="M240 248h542v536H240z"/><path fill="url(#n)" d="M240 248h542v536H240z"/></g></g><defs><filter id="a" x="90" y="100" width="844" height="844" filterUnits="userSpaceOnUse" color-interpolation-filters="sRGB"><feFlood flood-opacity="0" result="BackgroundImageFix"/><feColorMatrix in="SourceAlpha" values="0 0 0 0 0 0 0 0 0 0 0 0 0 0 0 0 0 0 127 0" result="hardAlpha"/><feOffset dy="10"/><feGaussianBlur stdDeviation="5"/><feColorMatrix values="0 0 0 0 0 0 0 0 0 0 0 0 0 0 0 0 0 0 0.3 0"/><feBlend in2="BackgroundImageFix" result="effect1_dropShadow_101_24"/><feBlend in="SourceGraphic" in2="effect1_dropShadow_101_24" result="shape"/></filter><filter id="c" x="100" y="100" width="824" height="836" filterUnits="userSpaceOnUse" color-interpolation-filters="sRGB"><feFlood flood-opacity="0" result="BackgroundImageFix"/><feBlend in="SourceGraphic" in2="BackgroundImageFix" result="shape"/><feColorMatrix in="SourceAlpha" values="0 0 0 0 0 0 0 0 0 0 0 0 0 0 0 0 0 0 127 0" result="hardAlpha"/><feOffset dy="12"/><feGaussianBlur stdDeviation="35"/><feComposite in2="hardAlpha" operator="arithmetic" k2="-1" k3="1"/><feColorMatrix values="0 0 0 0 1 0 0 0 0 1 0 0 0 0 1 0 0 0 0.07 0"/><feBlend in2="shape" result="effect1_innerShadow_101_24"/></filter><filter id="f" x="158" y="206" width="668" height="664" filterUnits="userSpaceOnUse" color-interpolation-filters="sRGB"><feFlood flood-opacity="0" result="BackgroundImageFix"/><feColorMatrix in="SourceAlpha" values="0 0 0 0 0 0 0 0 0 0 0 0 0 0 0 0 0 0 127 0" result="hardAlpha"/><feOffset dx="-12" dy="12"/><feGaussianBlur stdDeviation="11.5"/><feColorMatrix values="0 0 0 0 0.00286458 0 0 0 0 0.0486406 0 0 0 0 0.1375 0 0 0 0.337821 0"/><feBlend in2="BackgroundImageFix" result="effect1_dropShadow_101_24"/><feColorMatrix in="SourceAlpha" values="0 0 0 0 0 0 0 0 0 0 0 0 0 0 0 0 0 0 127 0" result="hardAlpha"/><feOffset dx="-20" dy="22"/><feGaussianBlur stdDeviation="32"/><feColorMatrix values="0 0 0 0 0 0 0 0 0 0.0845 0 0 0 0 0.1625 0 0 0 0.5 0"/><feBlend in2="effect1_dropShadow_101_24" result="effect2_dropShadow_101_24"/><feBlend in="SourceGraphic" in2="effect2_dropShadow_101_24" result="shape"/></filter><filter id="h" x="236" y="242" width="552" height="432" filterUnits="userSpaceOnUse" color-interpolation-filters="sRGB"><feFlood flood-opacity="0" result="BackgroundImageFix"/><feBlend in="SourceGraphic" in2="BackgroundImageFix" result="shape"/><feColorMatrix in="SourceAlpha" values="0 0 0 0 0 0 0 0 0 0 0 0 0 0 0 0 0 0 127 0" result="hardAlpha"/><feOffset dx="2" dy="2"/><feGaussianBlur stdDeviation="8"/><feComposite in2="hardAlpha" operator="arithmetic" k2="-1" k3="1"/><feColorMatrix values="0 0 0 0 0 0 0 0 0 0 0 0 0 0 0 0 0 0 0.306543 0"/><feBlend in2="shape" result="effect1_innerShadow_101_24"/><feColorMatrix in="SourceAlpha" values="0 0 0 0 0 0 0 0 0 0 0 0 0 0 0 0 0 0 127 0" result="hardAlpha"/><feOffset dx="6" dy="20"/><feGaussianBlur stdDeviation="11.5"/><feComposite in2="hardAlpha" operator="arithmetic" k2="-1" k3="1"/><feColorMatrix values="0 0 0 0 0 0 0 0 0 0 0 0 0 0 0 0 0 0 0.279748 0"/><feBlend in2="effect1_innerShadow_101_24" result="effect2_innerShadow_101_24"/><feColorMatrix in="SourceAlpha" values="0 0 0 0 0 0 0 0 0 0 0 0 0 0 0 0 0 0 127 0" result="hardAlpha"/><feOffset dy="-2"/><feGaussianBlur stdDeviation="1.5"/><feComposite in2="hardAlpha" operator="arithmetic" k2="-1" k3="1"/><feColorMatrix values="0 0 0 0 1 0 0 0 0 1 0 0 0 0 1 0 0 0 0.614012 0"/><feBlend in2="effect2_innerShadow_101_24" result="effect3_innerShadow_101_24"/><feColorMatrix in="SourceAlpha" values="0 0 0 0 0 0 0 0 0 0 0 0 0 0 0 0 0 0 127 0" result="hardAlpha"/><feOffset dx="-4" dy="-4"/><feGaussianBlur stdDeviation="5.5"/><feComposite in2="hardAlpha" operator="arithmetic" k2="-1" k3="1"/><feColorMatrix values="0 0 0 0 1 0 0 0 0 1 0 0 0 0 1 0 0 0 0.173997 0"/><feBlend in2="effect3_innerShadow_101_24" result="effect4_innerShadow_101_24"/></filter><filter id="i" x="236" y="356" width="552" height="432" filterUnits="userSpaceOnUse" color-interpolation-filters="sRGB"><feFlood flood-opacity="0" result="BackgroundImageFix"/><feBlend in="SourceGraphic" in2="BackgroundImageFix" result="shape"/><feColorMatrix in="SourceAlpha" values="0 0 0 0 0 0 0 0 0 0 0 0 0 0 0 0 0 0 127 0" result="hardAlpha"/><feOffset dx="1" dy="-2"/><feGaussianBlur stdDeviation="8"/><feComposite in2="hardAlpha" operator="arithmetic" k2="-1" k3="1"/><feColorMatrix values="0 0 0 0 0 0 0 0 0 0 0 0 0 0 0 0 0 0 0.308167 0"/><feBlend in2="shape" result="effect1_innerShadow_101_24"/><feColorMatrix in="SourceAlpha" values="0 0 0 0 0 0 0 0 0 0 0 0 0 0 0 0 0 0 127 0" result="hardAlpha"/><feOffset dx="6" dy="-20"/><feGaussianBlur stdDeviation="11.5"/><feComposite in2="hardAlpha" operator="arithmetic" k2="-1" k3="1"/><feColorMatrix values="0 0 0 0 0 0 0 0 0 0 0 0 0 0 0 0 0 0 0.279748 0"/><feBlend in2="effect1_innerShadow_101_24" result="effect2_innerShadow_101_24"/><feColorMatrix in="SourceAlpha" values="0 0 0 0 0 0 0 0 0 0 0 0 0 0 0 0 0 0 127 0" result="hardAlpha"/><feOffset dy="1"/><feGaussianBlur stdDeviation="1.5"/><feComposite in2="hardAlpha" operator="arithmetic" k2="-1" k3="1"/><feColorMatrix values="0 0 0 0 1 0 0 0 0 1 0 0 0 0 1 0 0 0 0.614012 0"/><feBlend in2="effect2_innerShadow_101_24" result="effect3_innerShadow_101_24"/><feColorMatrix in="SourceAlpha" values="0 0 0 0 0 0 0 0 0 0 0 0 0 0 0 0 0 0 127 0" result="hardAlpha"/><feOffset dx="-4" dy="4"/><feGaussianBlur stdDeviation="5.5"/><feComposite in2="hardAlpha" operator="arithmetic" k2="-1" k3="1"/><feColorMatrix values="0 0 0 0 1 0 0 0 0 1 0 0 0 0 1 0 0 0 0.173997 0"/><feBlend in2="effect3_innerShadow_101_24" result="effect4_innerShadow_101_24"/></filter><filter id="k" x="612" y="248" width="172" height="537" filterUnits="userSpaceOnUse" color-interpolation-filters="sRGB"><feFlood flood-opacity="0" result="BackgroundImageFix"/><feBlend in="SourceGraphic" in2="BackgroundImageFix" result="shape"/><feColorMatrix in="SourceAlpha" values="0 0 0 0 0 0 0 0 0 0 0 0 0 0 0 0 0 0 127 0" result="hardAlpha"/><feOffset dy="1"/><feGaussianBlur stdDeviation="1.5"/><feComposite in2="hardAlpha" operator="arithmetic" k2="-1" k3="1"/><feColorMatrix values="0 0 0 0 1 0 0 0 0 1 0 0 0 0 1 0 0 0 1 0"/><feBlend in2="shape" result="effect1_innerShadow_101_24"/><feColorMatrix in="SourceAlpha" values="0 0 0 0 0 0 0 0 0 0 0 0 0 0 0 0 0 0 127 0" result="hardAlpha"/><feOffset dx="2"/><feGaussianBlur stdDeviation="1.5"/><feComposite in2="hardAlpha" operator="arithmetic" k2="-1" k3="1"/><feColorMatrix values="0 0 0 0 1 0 0 0 0 1 0 0 0 0 1 0 0 0 0.379235 0"/><feBlend in2="effect1_innerShadow_101_24" result="effect2_innerShadow_101_24"/></filter><linearGradient id="b" x1="-181.14" y1="100" x2="-181.14" y2="1486.28" gradientUnits="userSpaceOnUse"><stop stop-color="#fff"/><stop offset=".49" stop-color="#EFEFEF"/><stop offset="1" stop-color="silver"/></linearGradient><linearGradient id="e" x1="-41.677" y1="-138.354" x2="-41.677" y2="969" gradientUnits="userSpaceOnUse"><stop stop-color="#111827"/><stop offset=".85" stop-color="#030712"/></linearGradient><linearGradient id="j" x1="494.47" y1="694.126" x2="737.7" y2="694.126" gradientUnits="userSpaceOnUse"><stop stop-color="#00669F" stop-opacity="0"/><stop offset=".5" stop-color="#00669F"/></linearGradient><linearGradient id="m" x1="689.018" y1="605.662" x2="870.35" y2="605.662" gradientUnits="userSpaceOnUse"><stop stop-color="#00669F" stop-opacity=".01"/><stop offset=".5" stop-color="#00669F"/></linearGradient><linearGradient id="n" x1="646.983" y1="571.051" x2="731.304" y2="571.051" gradientUnits="userSpaceOnUse"><stop stop-color="#B4D7FF" stop-opacity=".185"/><stop offset="1" stop-color="#006AA8" stop-opacity=".01"/></linearGradient></defs></svg>