<svg fill="none" xmlns="http://www.w3.org/2000/svg" viewBox="82 40 542 538"><g filter="url(#a)"><path fill-rule="evenodd" clip-rule="evenodd" d="M466.923 575.709a33.68 33.68 0 0 0 26.789-1.027l111.177-53.375C616.571 515.698 624 503.9 624 490.959V129.042c0-12.942-7.429-24.738-19.111-30.347L493.712 45.318a33.68 33.68 0 0 0-34.338 3.088 33.6 33.6 0 0 0-4.021 3.43L242.517 245.569l-92.706-70.212c-8.63-6.536-20.701-6.001-28.717 1.274L91.36 203.617c-9.804 8.898-9.815 24.287-.024 33.2l80.398 73.182-80.398 73.183c-9.791 8.913-9.78 24.302.024 33.2l29.734 26.986c8.016 7.275 20.087 7.81 28.717 1.275l92.706-70.214 212.836 193.735a33.6 33.6 0 0 0 11.57 7.545M488 188 328 310l160 122z" fill="#000" fill-opacity=".01"/></g><mask id="b" style="mask-type:luminance" maskUnits="userSpaceOnUse" x="84" y="42" width="540" height="536"><path fill-rule="evenodd" clip-rule="evenodd" d="M466.923 575.709a33.68 33.68 0 0 0 26.789-1.027l111.177-53.375C616.571 515.698 624 503.9 624 490.959V129.042c0-12.942-7.429-24.738-19.111-30.347L493.712 45.318a33.68 33.68 0 0 0-34.338 3.088 33.6 33.6 0 0 0-4.021 3.43L242.517 245.569l-92.706-70.212c-8.63-6.536-20.701-6.001-28.717 1.274L91.36 203.617c-9.804 8.898-9.815 24.287-.024 33.2l80.398 73.182-80.398 73.183c-9.791 8.913-9.78 24.302.024 33.2l29.734 26.986c8.016 7.275 20.087 7.81 28.717 1.275l92.706-70.214 212.836 193.735a33.6 33.6 0 0 0 11.57 7.545M488 188 328 310l160 122z" fill="#fff"/></mask><g mask="url(#b)"><g filter="url(#c)"><path d="M604.832 96.884 493.224 43.33c-12.917-6.198-28.357-3.583-38.496 6.52L89.363 381.846c-9.827 8.93-9.816 24.35.025 33.265l29.844 27.039c8.045 7.289 20.161 7.826 28.823 1.277l439.983-332.648C602.799 99.619 624 110.11 624 128.576v-1.292c0-12.961-7.45-24.776-19.168-30.4" fill="#00EDD1"/></g><g filter="url(#d)"><path d="m604.832 521.116-111.608 53.555c-12.917 6.198-28.357 3.583-38.496-6.52L89.363 236.154c-9.827-8.93-9.816-24.35.025-33.265l29.844-27.039c8.045-7.289 20.161-7.826 28.823-1.277l439.983 332.648c14.761 11.16 35.962.669 35.962-17.797v1.292c0 12.961-7.45 24.776-19.168 30.4" fill="#26AEF9"/></g><path fill="url(#e)" d="M86 10h404v580H86z"/><g filter="url(#f)"><path d="M492.667 574.681c-12.978 6.182-28.484 3.57-38.667-6.515 12.546 12.425 34 3.624 34-13.95V65.784c0-17.574-21.454-26.375-34-13.948 10.183-10.086 25.689-12.7 38.667-6.518l112.068 53.377C616.512 104.304 624 116.1 624 129.042V490.96c0 12.942-7.488 24.738-19.265 30.347z" fill="#00EDD1"/></g><mask id="g" style="mask-type:luminance" maskUnits="userSpaceOnUse" x="454" y="42" width="170" height="536"><path d="M492.667 574.681c-12.978 6.182-28.484 3.57-38.667-6.515 12.546 12.425 34 3.624 34-13.95V65.784c0-17.574-21.454-26.375-34-13.948 10.183-10.086 25.689-12.7 38.667-6.518l112.068 53.377C616.512 104.304 624 116.1 624 129.042V490.96c0 12.942-7.488 24.738-19.265 30.347z" fill="#fff"/></mask><g mask="url(#g)"><path fill="url(#h)" d="M82 42h542v536H82z"/><path fill="url(#i)" d="M82 42h542v536H82z"/></g></g><defs><filter id="a" x="0" y="0" width="668" height="664" filterUnits="userSpaceOnUse" color-interpolation-filters="sRGB"><feFlood flood-opacity="0" result="BackgroundImageFix"/><feColorMatrix in="SourceAlpha" values="0 0 0 0 0 0 0 0 0 0 0 0 0 0 0 0 0 0 127 0" result="hardAlpha"/><feOffset dx="-12" dy="12"/><feGaussianBlur stdDeviation="11.5"/><feColorMatrix values="0 0 0 0 0.00286458 0 0 0 0 0.0486406 0 0 0 0 0.1375 0 0 0 0.337821 0"/><feBlend in2="BackgroundImageFix" result="effect1_dropShadow_202_207"/><feColorMatrix in="SourceAlpha" values="0 0 0 0 0 0 0 0 0 0 0 0 0 0 0 0 0 0 127 0" result="hardAlpha"/><feOffset dx="-20" dy="22"/><feGaussianBlur stdDeviation="32"/><feColorMatrix values="0 0 0 0 0 0 0 0 0 0.0845 0 0 0 0 0.1625 0 0 0 0.5 0"/><feBlend in2="effect1_dropShadow_202_207" result="effect2_dropShadow_202_207"/><feBlend in="SourceGraphic" in2="effect2_dropShadow_202_207" result="shape"/></filter><filter id="c" x="78" y="36" width="552" height="432" filterUnits="userSpaceOnUse" color-interpolation-filters="sRGB"><feFlood flood-opacity="0" result="BackgroundImageFix"/><feBlend in="SourceGraphic" in2="BackgroundImageFix" result="shape"/><feColorMatrix in="SourceAlpha" values="0 0 0 0 0 0 0 0 0 0 0 0 0 0 0 0 0 0 127 0" result="hardAlpha"/><feOffset dx="2" dy="2"/><feGaussianBlur stdDeviation="8"/><feComposite in2="hardAlpha" operator="arithmetic" k2="-1" k3="1"/><feColorMatrix values="0 0 0 0 0 0 0 0 0 0 0 0 0 0 0 0 0 0 0.306543 0"/><feBlend in2="shape" result="effect1_innerShadow_202_207"/><feColorMatrix in="SourceAlpha" values="0 0 0 0 0 0 0 0 0 0 0 0 0 0 0 0 0 0 127 0" result="hardAlpha"/><feOffset dx="6" dy="20"/><feGaussianBlur stdDeviation="11.5"/><feComposite in2="hardAlpha" operator="arithmetic" k2="-1" k3="1"/><feColorMatrix values="0 0 0 0 0 0 0 0 0 0 0 0 0 0 0 0 0 0 0.279748 0"/><feBlend in2="effect1_innerShadow_202_207" result="effect2_innerShadow_202_207"/><feColorMatrix in="SourceAlpha" values="0 0 0 0 0 0 0 0 0 0 0 0 0 0 0 0 0 0 127 0" result="hardAlpha"/><feOffset dy="-2"/><feGaussianBlur stdDeviation="1.5"/><feComposite in2="hardAlpha" operator="arithmetic" k2="-1" k3="1"/><feColorMatrix values="0 0 0 0 1 0 0 0 0 1 0 0 0 0 1 0 0 0 0.614012 0"/><feBlend in2="effect2_innerShadow_202_207" result="effect3_innerShadow_202_207"/><feColorMatrix in="SourceAlpha" values="0 0 0 0 0 0 0 0 0 0 0 0 0 0 0 0 0 0 127 0" result="hardAlpha"/><feOffset dx="-4" dy="-4"/><feGaussianBlur stdDeviation="5.5"/><feComposite in2="hardAlpha" operator="arithmetic" k2="-1" k3="1"/><feColorMatrix values="0 0 0 0 1 0 0 0 0 1 0 0 0 0 1 0 0 0 0.173997 0"/><feBlend in2="effect3_innerShadow_202_207" result="effect4_innerShadow_202_207"/></filter><filter id="d" x="78" y="150" width="552" height="432" filterUnits="userSpaceOnUse" color-interpolation-filters="sRGB"><feFlood flood-opacity="0" result="BackgroundImageFix"/><feBlend in="SourceGraphic" in2="BackgroundImageFix" result="shape"/><feColorMatrix in="SourceAlpha" values="0 0 0 0 0 0 0 0 0 0 0 0 0 0 0 0 0 0 127 0" result="hardAlpha"/><feOffset dx="1" dy="-2"/><feGaussianBlur stdDeviation="8"/><feComposite in2="hardAlpha" operator="arithmetic" k2="-1" k3="1"/><feColorMatrix values="0 0 0 0 0 0 0 0 0 0 0 0 0 0 0 0 0 0 0.308167 0"/><feBlend in2="shape" result="effect1_innerShadow_202_207"/><feColorMatrix in="SourceAlpha" values="0 0 0 0 0 0 0 0 0 0 0 0 0 0 0 0 0 0 127 0" result="hardAlpha"/><feOffset dx="6" dy="-20"/><feGaussianBlur stdDeviation="11.5"/><feComposite in2="hardAlpha" operator="arithmetic" k2="-1" k3="1"/><feColorMatrix values="0 0 0 0 0 0 0 0 0 0 0 0 0 0 0 0 0 0 0.279748 0"/><feBlend in2="effect1_innerShadow_202_207" result="effect2_innerShadow_202_207"/><feColorMatrix in="SourceAlpha" values="0 0 0 0 0 0 0 0 0 0 0 0 0 0 0 0 0 0 127 0" result="hardAlpha"/><feOffset dy="1"/><feGaussianBlur stdDeviation="1.5"/><feComposite in2="hardAlpha" operator="arithmetic" k2="-1" k3="1"/><feColorMatrix values="0 0 0 0 1 0 0 0 0 1 0 0 0 0 1 0 0 0 0.614012 0"/><feBlend in2="effect2_innerShadow_202_207" result="effect3_innerShadow_202_207"/><feColorMatrix in="SourceAlpha" values="0 0 0 0 0 0 0 0 0 0 0 0 0 0 0 0 0 0 127 0" result="hardAlpha"/><feOffset dx="-4" dy="4"/><feGaussianBlur stdDeviation="5.5"/><feComposite in2="hardAlpha" operator="arithmetic" k2="-1" k3="1"/><feColorMatrix values="0 0 0 0 1 0 0 0 0 1 0 0 0 0 1 0 0 0 0.173997 0"/><feBlend in2="effect3_innerShadow_202_207" result="effect4_innerShadow_202_207"/></filter><filter id="f" x="454" y="42" width="172" height="537" filterUnits="userSpaceOnUse" color-interpolation-filters="sRGB"><feFlood flood-opacity="0" result="BackgroundImageFix"/><feBlend in="SourceGraphic" in2="BackgroundImageFix" result="shape"/><feColorMatrix in="SourceAlpha" values="0 0 0 0 0 0 0 0 0 0 0 0 0 0 0 0 0 0 127 0" result="hardAlpha"/><feOffset dy="1"/><feGaussianBlur stdDeviation="1.5"/><feComposite in2="hardAlpha" operator="arithmetic" k2="-1" k3="1"/><feColorMatrix values="0 0 0 0 1 0 0 0 0 1 0 0 0 0 1 0 0 0 1 0"/><feBlend in2="shape" result="effect1_innerShadow_202_207"/><feColorMatrix in="SourceAlpha" values="0 0 0 0 0 0 0 0 0 0 0 0 0 0 0 0 0 0 127 0" result="hardAlpha"/><feOffset dx="2"/><feGaussianBlur stdDeviation="1.5"/><feComposite in2="hardAlpha" operator="arithmetic" k2="-1" k3="1"/><feColorMatrix values="0 0 0 0 1 0 0 0 0 1 0 0 0 0 1 0 0 0 0.379235 0"/><feBlend in2="effect1_innerShadow_202_207" result="effect2_innerShadow_202_207"/></filter><linearGradient id="e" x1="336.47" y1="488.126" x2="579.7" y2="488.126" gradientUnits="userSpaceOnUse"><stop stop-color="#00669F" stop-opacity="0"/><stop offset=".5" stop-color="#00669F"/></linearGradient><linearGradient id="h" x1="531.018" y1="399.662" x2="712.35" y2="399.662" gradientUnits="userSpaceOnUse"><stop stop-color="#00669F" stop-opacity=".01"/><stop offset=".5" stop-color="#00669F"/></linearGradient><linearGradient id="i" x1="488.983" y1="365.051" x2="573.304" y2="365.051" gradientUnits="userSpaceOnUse"><stop stop-color="#B4D7FF" stop-opacity=".185"/><stop offset="1" stop-color="#006AA8" stop-opacity=".01"/></linearGradient></defs></svg>